<svg xmlns="http://www.w3.org/2000/svg" width="167.541" height="100.303" viewBox="0 0 167.541 100.303"><defs><style>.a{fill:none;}.b{fill:#9d3cfa;}.c{fill:#3c303e;stroke:#3c303e;stroke-miterlimit:10;stroke-width:0.5px;}</style></defs><rect class="a" width="167.31" height="100.303" transform="translate(0.232 0)"/><circle class="b" cx="4.205" cy="4.205" r="4.205" transform="translate(79.876 46.289)"/><g transform="translate(0 0.588)"><path class="b" d="M267.54,325.57a32.845,32.845,0,0,1-13.679-2.435,37.245,37.245,0,0,1-11.088-7.721,5.52,5.52,0,0,1-.881-1.14,2.813,2.813,0,0,1-.363-1.451,3.242,3.242,0,0,1,.985-2.28,3.008,3.008,0,0,1,2.228-1.036,3.174,3.174,0,0,1,2.28,1.036,27.914,27.914,0,0,0,9.171,6.632,26.854,26.854,0,0,0,11.036,2.28,23.706,23.706,0,0,0,8.861-1.554,14.47,14.47,0,0,0,6.166-4.456,10.593,10.593,0,0,0,2.28-6.736,11.64,11.64,0,0,0-2.643-7.669,20.1,20.1,0,0,0-6.788-4.871,62.824,62.824,0,0,0-9.43-3.419q-4.251-1.346-8.135-2.954a28.563,28.563,0,0,1-6.84-3.938,16.269,16.269,0,0,1-4.612-5.751,18.6,18.6,0,0,1-1.658-8.187,17.1,17.1,0,0,1,2.9-9.793,19.315,19.315,0,0,1,8.238-6.736,29.57,29.57,0,0,1,12.384-2.435,33.894,33.894,0,0,1,11.762,2.073,20.378,20.378,0,0,1,8.964,6.114,4.689,4.689,0,0,1,1.554,3.005,2.91,2.91,0,0,1-1.036,2.125,3.241,3.241,0,0,1-2.28.984,2.394,2.394,0,0,1-1.762-.725,18.252,18.252,0,0,0-4.456-3.886A22.686,22.686,0,0,0,274.743,258a24.592,24.592,0,0,0-6.788-.933,24.14,24.14,0,0,0-8.757,1.5,14.1,14.1,0,0,0-6.114,4.3,10.629,10.629,0,0,0-2.228,6.84,10.166,10.166,0,0,0,2.487,7.1,19.311,19.311,0,0,0,6.529,4.56q4.042,1.814,8.6,3.368a88.976,88.976,0,0,1,8.55,2.85,30.522,30.522,0,0,1,7.254,3.99,16.88,16.88,0,0,1,4.974,6.011,20.341,20.341,0,0,1,1.813,9.119,16.124,16.124,0,0,1-3,9.534,20.751,20.751,0,0,1-8.239,6.736A29.376,29.376,0,0,1,267.54,325.57Z" transform="translate(-241.529 -250.956)"/><path class="b" d="M450.107,261.765l-25.182,62.489a3.4,3.4,0,0,1-1.14,1.554,2.774,2.774,0,0,1-1.658.518,2.983,2.983,0,0,1-2.28-.777,2.7,2.7,0,0,1-.725-1.917,2.655,2.655,0,0,1,.1-1.243l27.358-66.945a2.953,2.953,0,0,1,1.192-1.606,3.455,3.455,0,0,1,1.813-.466,3.161,3.161,0,0,1,1.917.57,3.677,3.677,0,0,1,1.192,1.5l27.255,66.634a3.921,3.921,0,0,1,.207,1.244,2.737,2.737,0,0,1-.932,2.228,3.3,3.3,0,0,1-2.176.777,2.981,2.981,0,0,1-1.814-.57,3.656,3.656,0,0,1-1.192-1.5l-25.8-63.007Z" transform="translate(-365.752 -252.646)"/><path class="b" d="M615.856,260.313a3.168,3.168,0,0,1-2.176-.829,2.656,2.656,0,0,1-.933-2.073,2.775,2.775,0,0,1,.933-2.176,3.176,3.176,0,0,1,2.176-.829H665.08a3.315,3.315,0,0,1,2.28.829,2.775,2.775,0,0,1,.933,2.176,2.617,2.617,0,0,1-.933,2.125,3.445,3.445,0,0,1-2.28.777Zm24.664,66.634a3.227,3.227,0,0,1-2.384-.933,2.982,2.982,0,0,1-.932-2.176V257.826h6.528v66.013a2.983,2.983,0,0,1-.932,2.176A3.1,3.1,0,0,1,640.52,326.947Z" transform="translate(-501.242 -253.37)"/></g><g transform="translate(22.771 89.616)"><path class="c" d="M325.374,548.271a.43.43,0,0,1,.2.3.454.454,0,0,1-.1.353.319.319,0,0,1-.252.151.666.666,0,0,1-.31-.065,4.52,4.52,0,0,0-1.167-.562,4.387,4.387,0,0,0-1.339-.2,4.187,4.187,0,0,0-1.635.317,3.955,3.955,0,0,0-1.318.893,4.043,4.043,0,0,0-.872,1.369,5.109,5.109,0,0,0,.007,3.521,4.052,4.052,0,0,0,.886,1.376,3.871,3.871,0,0,0,1.318.879,4.269,4.269,0,0,0,1.613.3,4.327,4.327,0,0,0,1.332-.2,5.142,5.142,0,0,0,1.174-.547.452.452,0,0,1,.3-.065.419.419,0,0,1,.274.166.451.451,0,0,1,.086.346.356.356,0,0,1-.187.274,5.788,5.788,0,0,1-.85.439,5.529,5.529,0,0,1-1.037.324,5.3,5.3,0,0,1-1.095.115,5.1,5.1,0,0,1-1.952-.375,4.947,4.947,0,0,1-2.715-2.693,5.37,5.37,0,0,1-.4-2.117,5.233,5.233,0,0,1,.4-2.059,5.148,5.148,0,0,1,1.088-1.635,4.95,4.95,0,0,1,1.613-1.088,5.02,5.02,0,0,1,1.973-.389,5.456,5.456,0,0,1,1.584.23A5.1,5.1,0,0,1,325.374,548.271Z" transform="translate(-317.337 -547.378)"/><path class="c" d="M388.044,552.529a5.9,5.9,0,0,1-.353,2.082,4.917,4.917,0,0,1-1,1.642,4.494,4.494,0,0,1-1.534,1.08,5.128,5.128,0,0,1-3.882,0,4.512,4.512,0,0,1-1.527-1.08,5.007,5.007,0,0,1-1.008-1.642,6.194,6.194,0,0,1,0-4.163,5.012,5.012,0,0,1,1.008-1.642,4.517,4.517,0,0,1,1.527-1.08,5.125,5.125,0,0,1,3.882,0,4.5,4.5,0,0,1,1.534,1.08,4.922,4.922,0,0,1,1,1.642A5.9,5.9,0,0,1,388.044,552.529Zm-.922,0a4.83,4.83,0,0,0-.5-2.254,3.841,3.841,0,0,0-1.375-1.52,3.727,3.727,0,0,0-2.024-.547,3.7,3.7,0,0,0-3.406,2.067,5.362,5.362,0,0,0,0,4.508,3.894,3.894,0,0,0,5.43,1.52,3.841,3.841,0,0,0,1.375-1.52A4.832,4.832,0,0,0,387.122,552.529Z" transform="translate(-360.043 -547.344)"/><path class="c" d="M447.524,547.815a.5.5,0,0,1,.209.05.521.521,0,0,1,.18.137l3.975,5.963-.389-.014,3.99-5.949a.46.46,0,0,1,.684-.065.421.421,0,0,1,.122.31v9.218a.4.4,0,0,1-.137.3.456.456,0,0,1-.324.13.431.431,0,0,1-.317-.13.414.414,0,0,1-.13-.3v-8.339l.26.029L452,554.671a.313.313,0,0,1-.137.137.4.4,0,0,1-.389,0,.41.41,0,0,1-.151-.137l-3.659-5.574.274-.187v8.556a.427.427,0,0,1-.122.3.408.408,0,0,1-.31.13.385.385,0,0,1-.3-.13.441.441,0,0,1-.115-.3v-9.218a.436.436,0,0,1,.123-.3A.4.4,0,0,1,447.524,547.815Z" transform="translate(-408.117 -547.671)"/><path class="c" d="M520.275,547.823a2.74,2.74,0,0,1,1.426.368,2.652,2.652,0,0,1,.979,1.015,3.034,3.034,0,0,1,.36,1.5,3.1,3.1,0,0,1-.36,1.491,2.777,2.777,0,0,1-.979,1.058,2.623,2.623,0,0,1-1.426.389h-3.054l.072-.129v3.961a.444.444,0,0,1-.432.432.4.4,0,0,1-.317-.13.44.44,0,0,1-.115-.3v-9.218a.426.426,0,0,1,.123-.3.407.407,0,0,1,.309-.13Zm0,4.984a1.711,1.711,0,0,0,.98-.281,1.922,1.922,0,0,0,.655-.763,2.363,2.363,0,0,0,.238-1.058,2.251,2.251,0,0,0-.238-1.059,1.766,1.766,0,0,0-1.635-.972h-3.054l.072-.115v4.335l-.086-.086Z" transform="translate(-456.627 -547.679)"/><path class="c" d="M574,548.846l-3.5,8.686a.475.475,0,0,1-.159.216.386.386,0,0,1-.23.072.415.415,0,0,1-.317-.108.374.374,0,0,1-.1-.267.367.367,0,0,1,.014-.173l3.8-9.3a.408.408,0,0,1,.166-.223.478.478,0,0,1,.252-.065.441.441,0,0,1,.266.079.513.513,0,0,1,.166.209l3.788,9.261a.549.549,0,0,1,.029.173.38.38,0,0,1-.129.31.459.459,0,0,1-.3.108.413.413,0,0,1-.252-.079.507.507,0,0,1-.166-.209l-3.586-8.757Zm-2.665,6.05.36-.85h4.465l.173.85Z" transform="translate(-493.887 -547.579)"/><path class="c" d="M640.9,547.823a.387.387,0,0,1,.3.115.407.407,0,0,1,.108.288v9.218a.43.43,0,0,1-.137.339.452.452,0,0,1-.309.123.535.535,0,0,1-.195-.036.348.348,0,0,1-.151-.108l-6.424-8.642.245-.144v8.541a.374.374,0,0,1-.115.274.391.391,0,0,1-.288.115.383.383,0,0,1-.4-.389v-9.261a.408.408,0,0,1,.418-.433.57.57,0,0,1,.187.036.309.309,0,0,1,.158.123l6.352,8.555-.144.259v-8.57a.394.394,0,0,1,.4-.4Z" transform="translate(-538.551 -547.679)"/><path class="c" d="M701.654,547.632a.39.39,0,0,1,.31.144.448.448,0,0,1,.123.288.5.5,0,0,1-.022.144.411.411,0,0,1-.065.129l-3.385,4.653.173-.562v4.911a.414.414,0,0,1-.129.3.452.452,0,0,1-.634,0,.415.415,0,0,1-.129-.3v-4.811l.086.346-3.3-4.508a.528.528,0,0,1-.086-.151.441.441,0,0,1-.029-.151.383.383,0,0,1,.151-.31.491.491,0,0,1,.31-.122.429.429,0,0,1,.36.2l3.1,4.22-.216-.029,3.01-4.177A.433.433,0,0,1,701.654,547.632Z" transform="translate(-581.256 -547.546)"/></g></svg>