<svg xmlns="http://www.w3.org/2000/svg" width="156.802" height="93.55" viewBox="0 0 156.802 93.55">
  <g id="Layer_1" data-name="Layer 1" transform="translate(0)">
    <circle id="Elipse_49" data-name="Elipse 49" cx="3.947" cy="3.947" r="3.947" transform="translate(74.976 42.897)" fill="#f5efe4"/>
    <g id="Grupo_387" data-name="Grupo 387" transform="translate(0 0)">
      <path id="Caminho_301" data-name="Caminho 301" d="M1328.945,320.992a30.83,30.83,0,0,1-12.84-2.286,34.959,34.959,0,0,1-10.408-7.247,5.184,5.184,0,0,1-.827-1.07,2.639,2.639,0,0,1-.341-1.362,3.043,3.043,0,0,1,.924-2.14,2.823,2.823,0,0,1,2.092-.973,2.979,2.979,0,0,1,2.14.973,26.2,26.2,0,0,0,8.609,6.225,25.207,25.207,0,0,0,10.359,2.14,22.251,22.251,0,0,0,8.317-1.459,13.582,13.582,0,0,0,5.788-4.183,9.943,9.943,0,0,0,2.14-6.323,10.926,10.926,0,0,0-2.481-7.2,18.866,18.866,0,0,0-6.371-4.572,58.976,58.976,0,0,0-8.852-3.21q-3.99-1.263-7.636-2.772a26.808,26.808,0,0,1-6.42-3.7,15.272,15.272,0,0,1-4.329-5.4,17.459,17.459,0,0,1-1.556-7.685,16.05,16.05,0,0,1,2.724-9.192,18.13,18.13,0,0,1,7.733-6.323,27.755,27.755,0,0,1,11.624-2.286,31.815,31.815,0,0,1,11.041,1.945,19.128,19.128,0,0,1,8.414,5.739,4.4,4.4,0,0,1,1.459,2.821,2.731,2.731,0,0,1-.973,1.994,3.042,3.042,0,0,1-2.14.924,2.247,2.247,0,0,1-1.654-.681,17.13,17.13,0,0,0-4.183-3.648,21.293,21.293,0,0,0-5.593-2.481,23.083,23.083,0,0,0-6.371-.875,22.659,22.659,0,0,0-8.219,1.411,13.239,13.239,0,0,0-5.739,4.037,9.977,9.977,0,0,0-2.091,6.42,9.543,9.543,0,0,0,2.334,6.663,18.126,18.126,0,0,0,6.128,4.28q3.794,1.7,8.073,3.161a83.521,83.521,0,0,1,8.025,2.675,28.651,28.651,0,0,1,6.809,3.745,15.843,15.843,0,0,1,4.669,5.642,19.092,19.092,0,0,1,1.7,8.56,15.135,15.135,0,0,1-2.821,8.949,19.479,19.479,0,0,1-7.733,6.322A27.574,27.574,0,0,1,1328.945,320.992Z" transform="translate(-1304.529 -250.956)" fill="#f5efe4"/>
      <path id="Caminho_302" data-name="Caminho 302" d="M1511.2,261.25l-23.637,58.655a3.187,3.187,0,0,1-1.07,1.459,2.6,2.6,0,0,1-1.556.486,2.8,2.8,0,0,1-2.14-.729,2.535,2.535,0,0,1-.681-1.8,2.492,2.492,0,0,1,.1-1.167l25.68-62.838a2.771,2.771,0,0,1,1.119-1.508,3.242,3.242,0,0,1,1.7-.438,2.967,2.967,0,0,1,1.8.535,3.451,3.451,0,0,1,1.119,1.41l25.583,62.546a3.684,3.684,0,0,1,.194,1.167,2.569,2.569,0,0,1-.875,2.091,3.1,3.1,0,0,1-2.043.729,2.8,2.8,0,0,1-1.7-.535,3.432,3.432,0,0,1-1.119-1.41l-24.221-59.142Z" transform="translate(-1432.025 -252.69)" fill="#f5efe4"/>
      <path id="Caminho_303" data-name="Caminho 303" d="M1678.665,259.951a2.973,2.973,0,0,1-2.043-.778,2.493,2.493,0,0,1-.875-1.945,2.6,2.6,0,0,1,.875-2.043,2.981,2.981,0,0,1,2.043-.778h46.2a3.112,3.112,0,0,1,2.14.778,2.606,2.606,0,0,1,.875,2.043,2.458,2.458,0,0,1-.875,1.994,3.234,3.234,0,0,1-2.14.729Zm23.151,62.546a3.028,3.028,0,0,1-2.238-.875,2.8,2.8,0,0,1-.875-2.042V257.616h6.128v61.963a2.8,2.8,0,0,1-.875,2.042A2.913,2.913,0,0,1,1701.816,322.5Z" transform="translate(-1571.083 -253.433)" fill="#f5efe4"/>
    </g>
    <g id="Grupo_388" data-name="Grupo 388" transform="translate(21.374 83.566)">
      <path id="Caminho_304" data-name="Caminho 304" d="M1387.881,548.217a.4.4,0,0,1,.189.277.425.425,0,0,1-.095.331.3.3,0,0,1-.237.142.625.625,0,0,1-.291-.061,4.243,4.243,0,0,0-1.095-.527,4.121,4.121,0,0,0-1.257-.189,3.932,3.932,0,0,0-1.535.3,3.712,3.712,0,0,0-1.237.838,3.8,3.8,0,0,0-.818,1.285,4.8,4.8,0,0,0,.007,3.305,3.8,3.8,0,0,0,.832,1.291,3.633,3.633,0,0,0,1.237.825,4.007,4.007,0,0,0,1.514.284,4.06,4.06,0,0,0,1.25-.189,4.824,4.824,0,0,0,1.1-.514.424.424,0,0,1,.284-.061.393.393,0,0,1,.257.155.422.422,0,0,1,.081.325.334.334,0,0,1-.176.257,5.438,5.438,0,0,1-.8.412,5.2,5.2,0,0,1-.974.3,4.97,4.97,0,0,1-1.027.108,4.789,4.789,0,0,1-1.832-.352,4.643,4.643,0,0,1-2.549-2.528,5.04,5.04,0,0,1-.378-1.987,4.913,4.913,0,0,1,.372-1.933,4.83,4.83,0,0,1,1.021-1.534,4.647,4.647,0,0,1,1.514-1.021,4.711,4.711,0,0,1,1.852-.365,5.121,5.121,0,0,1,1.487.216A4.784,4.784,0,0,1,1387.881,548.217Z" transform="translate(-1380.337 -547.379)" fill="#f5efe4" stroke="#f5efe4" stroke-miterlimit="10" stroke-width="0.5"/>
      <path id="Caminho_305" data-name="Caminho 305" d="M1450.451,552.211a5.534,5.534,0,0,1-.331,1.954,4.615,4.615,0,0,1-.939,1.541,4.219,4.219,0,0,1-1.44,1.014,4.814,4.814,0,0,1-3.644,0,4.236,4.236,0,0,1-1.433-1.014,4.7,4.7,0,0,1-.946-1.541,5.815,5.815,0,0,1,0-3.907,4.7,4.7,0,0,1,.946-1.541,4.239,4.239,0,0,1,1.433-1.014,4.81,4.81,0,0,1,3.644,0,4.222,4.222,0,0,1,1.44,1.014,4.618,4.618,0,0,1,.939,1.541A5.533,5.533,0,0,1,1450.451,552.211Zm-.865,0a4.534,4.534,0,0,0-.473-2.115,3.6,3.6,0,0,0-1.291-1.427,3.5,3.5,0,0,0-1.9-.513,3.472,3.472,0,0,0-3.2,1.94,5.032,5.032,0,0,0,0,4.232,3.655,3.655,0,0,0,5.1,1.426,3.6,3.6,0,0,0,1.291-1.426A4.535,4.535,0,0,0,1449.585,552.211Z" transform="translate(-1424.168 -547.344)" fill="#f5efe4" stroke="#f5efe4" stroke-miterlimit="10" stroke-width="0.5"/>
      <path id="Caminho_306" data-name="Caminho 306" d="M1510.5,547.815a.468.468,0,0,1,.2.047.487.487,0,0,1,.169.129l3.731,5.6-.365-.014,3.745-5.584a.432.432,0,0,1,.642-.061.4.4,0,0,1,.115.291v8.652a.38.38,0,0,1-.128.284.428.428,0,0,1-.3.122.4.4,0,0,1-.3-.122.389.389,0,0,1-.122-.284v-7.828l.244.027-3.421,5.178a.293.293,0,0,1-.129.129.378.378,0,0,1-.365,0,.385.385,0,0,1-.142-.129l-3.434-5.232.257-.176v8.031a.4.4,0,0,1-.115.284.383.383,0,0,1-.291.122.361.361,0,0,1-.284-.122.414.414,0,0,1-.108-.284v-8.652a.409.409,0,0,1,.115-.277A.373.373,0,0,1,1510.5,547.815Z" transform="translate(-1473.508 -547.68)" fill="#f5efe4" stroke="#f5efe4" stroke-miterlimit="10" stroke-width="0.5"/>
      <path id="Caminho_307" data-name="Caminho 307" d="M1583.04,547.823a2.573,2.573,0,0,1,1.339.345,2.49,2.49,0,0,1,.919.953,2.847,2.847,0,0,1,.338,1.406,2.907,2.907,0,0,1-.338,1.4,2.607,2.607,0,0,1-.919.994,2.462,2.462,0,0,1-1.339.365h-2.866l.068-.121v3.718a.416.416,0,0,1-.406.406.377.377,0,0,1-.3-.122.413.413,0,0,1-.108-.284v-8.652a.4.4,0,0,1,.115-.284.382.382,0,0,1,.29-.122Zm0,4.678a1.605,1.605,0,0,0,.92-.264,1.806,1.806,0,0,0,.615-.716,2.217,2.217,0,0,0,.223-.994,2.111,2.111,0,0,0-.223-.994,1.658,1.658,0,0,0-1.535-.913h-2.866l.068-.108v4.069l-.081-.081Z" transform="translate(-1523.296 -547.688)" fill="#f5efe4" stroke="#f5efe4" stroke-miterlimit="10" stroke-width="0.5"/>
      <path id="Caminho_308" data-name="Caminho 308" d="M1636.735,548.775l-3.285,8.153a.445.445,0,0,1-.149.2.363.363,0,0,1-.216.068.39.39,0,0,1-.3-.1.487.487,0,0,1-.081-.412l3.569-8.734a.382.382,0,0,1,.156-.209.449.449,0,0,1,.236-.061.414.414,0,0,1,.25.074.479.479,0,0,1,.156.2l3.556,8.693a.514.514,0,0,1,.027.162.356.356,0,0,1-.122.291.43.43,0,0,1-.284.1.389.389,0,0,1-.237-.074.477.477,0,0,1-.156-.2l-3.366-8.22Zm-2.5,5.678.338-.8h4.191l.163.8Z" transform="translate(-1561.538 -547.585)" fill="#f5efe4" stroke="#f5efe4" stroke-miterlimit="10" stroke-width="0.5"/>
      <path id="Caminho_309" data-name="Caminho 309" d="M1703.449,547.823a.363.363,0,0,1,.277.108.381.381,0,0,1,.1.27v8.653a.4.4,0,0,1-.129.318.425.425,0,0,1-.291.115.5.5,0,0,1-.183-.034.326.326,0,0,1-.142-.1l-6.03-8.112.23-.135v8.017a.351.351,0,0,1-.108.257.366.366,0,0,1-.271.108.359.359,0,0,1-.378-.365v-8.693a.383.383,0,0,1,.392-.406.536.536,0,0,1,.176.034.291.291,0,0,1,.149.115l5.962,8.03-.135.243V548.2a.37.37,0,0,1,.379-.379Z" transform="translate(-1607.378 -547.688)" fill="#f5efe4" stroke="#f5efe4" stroke-miterlimit="10" stroke-width="0.5"/>
      <path id="Caminho_310" data-name="Caminho 310" d="M1764.22,547.632a.366.366,0,0,1,.291.135.42.42,0,0,1,.115.27.467.467,0,0,1-.02.135.385.385,0,0,1-.061.122l-3.177,4.367.162-.527v4.61a.389.389,0,0,1-.122.284.424.424,0,0,1-.6,0,.39.39,0,0,1-.121-.284v-4.515l.081.324-3.1-4.232a.5.5,0,0,1-.081-.142.415.415,0,0,1-.027-.142.359.359,0,0,1,.142-.291.461.461,0,0,1,.291-.115.4.4,0,0,1,.338.19l2.907,3.961-.2-.027,2.826-3.92A.406.406,0,0,1,1764.22,547.632Z" transform="translate(-1651.208 -547.551)" fill="#f5efe4" stroke="#f5efe4" stroke-miterlimit="10" stroke-width="0.5"/>
    </g>
  </g>
</svg>
