<svg xmlns="http://www.w3.org/2000/svg" width="115.431" height="68.934" viewBox="0 0 115.431 68.934"><defs><style>.a,.b{fill:#f5efe4;}.b{stroke:#f5efe4;stroke-miterlimit:10;stroke-width:0.5px;}</style></defs><g transform="translate(-241.529 -250.956)"><circle class="a" cx="2.906" cy="2.906" r="2.906" transform="translate(296.723 282.535)"/><g transform="translate(241.529 250.956)"><path class="a" d="M259.5,302.513a22.7,22.7,0,0,1-9.452-1.683,25.736,25.736,0,0,1-7.662-5.335,3.817,3.817,0,0,1-.609-.788,1.943,1.943,0,0,1-.251-1,2.24,2.24,0,0,1,.68-1.575,2.079,2.079,0,0,1,1.54-.716,2.193,2.193,0,0,1,1.575.716,19.288,19.288,0,0,0,6.337,4.583,18.556,18.556,0,0,0,7.626,1.575,16.381,16.381,0,0,0,6.123-1.074,10,10,0,0,0,4.26-3.079,7.32,7.32,0,0,0,1.576-4.654,8.043,8.043,0,0,0-1.826-5.3,13.89,13.89,0,0,0-4.69-3.366,43.413,43.413,0,0,0-6.516-2.363q-2.937-.93-5.621-2.041a19.735,19.735,0,0,1-4.726-2.721,11.242,11.242,0,0,1-3.187-3.974,12.851,12.851,0,0,1-1.146-5.657,11.815,11.815,0,0,1,2.005-6.767,13.346,13.346,0,0,1,5.693-4.654,20.432,20.432,0,0,1,8.557-1.683,23.421,23.421,0,0,1,8.128,1.432,14.081,14.081,0,0,1,6.194,4.225,3.24,3.24,0,0,1,1.074,2.077,2.01,2.01,0,0,1-.716,1.468,2.24,2.24,0,0,1-1.575.68,1.654,1.654,0,0,1-1.217-.5,12.611,12.611,0,0,0-3.079-2.685,15.678,15.678,0,0,0-4.117-1.826,16.994,16.994,0,0,0-4.69-.644,16.681,16.681,0,0,0-6.051,1.038,9.746,9.746,0,0,0-4.225,2.972,7.345,7.345,0,0,0-1.539,4.726,7.025,7.025,0,0,0,1.718,4.905,13.343,13.343,0,0,0,4.511,3.151q2.793,1.253,5.943,2.327a61.475,61.475,0,0,1,5.908,1.969,21.09,21.09,0,0,1,5.013,2.757,11.664,11.664,0,0,1,3.437,4.153,14.056,14.056,0,0,1,1.253,6.3,11.142,11.142,0,0,1-2.076,6.588,14.339,14.339,0,0,1-5.693,4.654A20.3,20.3,0,0,1,259.5,302.513Z" transform="translate(-241.529 -250.956)"/><path class="a" d="M440.521,259.171l-17.4,43.18a2.347,2.347,0,0,1-.788,1.074,1.917,1.917,0,0,1-1.146.358,2.061,2.061,0,0,1-1.575-.537,1.866,1.866,0,0,1-.5-1.325,1.834,1.834,0,0,1,.072-.859l18.9-46.259a2.04,2.04,0,0,1,.824-1.11,2.387,2.387,0,0,1,1.253-.322,2.184,2.184,0,0,1,1.325.394,2.541,2.541,0,0,1,.823,1.038l18.833,46.044a2.71,2.71,0,0,1,.143.859,1.891,1.891,0,0,1-.644,1.54,2.278,2.278,0,0,1-1.5.537,2.06,2.06,0,0,1-1.253-.394,2.526,2.526,0,0,1-.823-1.038l-17.831-43.538Z" transform="translate(-382.233 -252.87)"/><path class="a" d="M614.9,258.488a2.189,2.189,0,0,1-1.5-.573,1.835,1.835,0,0,1-.644-1.432,1.917,1.917,0,0,1,.644-1.5,2.195,2.195,0,0,1,1.5-.573h34.014a2.29,2.29,0,0,1,1.575.573,1.918,1.918,0,0,1,.644,1.5,1.809,1.809,0,0,1-.644,1.468,2.381,2.381,0,0,1-1.575.537Zm17.043,46.044a2.23,2.23,0,0,1-1.647-.644,2.06,2.06,0,0,1-.644-1.5V256.769h4.511v45.614a2.061,2.061,0,0,1-.644,1.5A2.144,2.144,0,0,1,631.938,304.531Z" transform="translate(-535.698 -253.69)"/></g><g transform="translate(257.264 312.474)"><path class="b" d="M322.891,548a.3.3,0,0,1,.139.2.314.314,0,0,1-.07.244.22.22,0,0,1-.174.1.459.459,0,0,1-.214-.045,3.125,3.125,0,0,0-.806-.388,3.031,3.031,0,0,0-.926-.139,2.892,2.892,0,0,0-1.13.219,2.733,2.733,0,0,0-.911.617,2.794,2.794,0,0,0-.6.946,3.53,3.53,0,0,0,0,2.433,2.8,2.8,0,0,0,.612.951,2.674,2.674,0,0,0,.911.607,2.949,2.949,0,0,0,1.115.209,2.99,2.99,0,0,0,.921-.139,3.555,3.555,0,0,0,.811-.378.312.312,0,0,1,.209-.045.29.29,0,0,1,.189.114.312.312,0,0,1,.06.239.246.246,0,0,1-.129.189,4.01,4.01,0,0,1-.587.3,3.827,3.827,0,0,1-.717.224,3.658,3.658,0,0,1-.756.08,3.525,3.525,0,0,1-1.349-.259,3.418,3.418,0,0,1-1.876-1.861,3.71,3.71,0,0,1-.279-1.463,3.616,3.616,0,0,1,.274-1.423,3.558,3.558,0,0,1,.752-1.13,3.421,3.421,0,0,1,1.115-.752,3.469,3.469,0,0,1,1.364-.269,3.77,3.77,0,0,1,1.095.159A3.524,3.524,0,0,1,322.891,548Z" transform="translate(-317.337 -547.383)"/><path class="b" d="M385.057,550.927a4.077,4.077,0,0,1-.244,1.438,3.4,3.4,0,0,1-.692,1.135,3.105,3.105,0,0,1-1.06.747,3.543,3.543,0,0,1-2.682,0,3.118,3.118,0,0,1-1.055-.747,3.46,3.46,0,0,1-.7-1.135,4.28,4.28,0,0,1,0-2.876,3.463,3.463,0,0,1,.7-1.135,3.12,3.12,0,0,1,1.055-.746,3.541,3.541,0,0,1,2.682,0,3.107,3.107,0,0,1,1.06.746,3.4,3.4,0,0,1,.692,1.135A4.077,4.077,0,0,1,385.057,550.927Zm-.637,0a3.339,3.339,0,0,0-.348-1.557,2.654,2.654,0,0,0-.95-1.05,2.576,2.576,0,0,0-1.4-.378,2.556,2.556,0,0,0-2.354,1.428,3.7,3.7,0,0,0,0,3.115,2.691,2.691,0,0,0,3.752,1.05,2.653,2.653,0,0,0,.95-1.05A3.339,3.339,0,0,0,384.42,550.927Z" transform="translate(-365.709 -547.344)"/><path class="b" d="M447.391,547.814a.343.343,0,0,1,.144.035.359.359,0,0,1,.125.095l2.747,4.12-.269-.01,2.757-4.11a.318.318,0,0,1,.473-.045.291.291,0,0,1,.084.214v6.37a.28.28,0,0,1-.094.209.315.315,0,0,1-.224.09.3.3,0,0,1-.219-.09.286.286,0,0,1-.09-.209V548.72l.179.02-2.518,3.812a.216.216,0,0,1-.095.095.278.278,0,0,1-.269,0,.283.283,0,0,1-.1-.095L447.49,548.7l.189-.13v5.912a.3.3,0,0,1-.084.209.282.282,0,0,1-.214.09.266.266,0,0,1-.209-.09.3.3,0,0,1-.08-.209v-6.37a.3.3,0,0,1,.085-.2A.275.275,0,0,1,447.391,547.814Z" transform="translate(-420.16 -547.715)"/><path class="b" d="M519.087,547.823a1.894,1.894,0,0,1,.985.254,1.832,1.832,0,0,1,.677.7,2.1,2.1,0,0,1,.249,1.035,2.14,2.14,0,0,1-.249,1.03,1.918,1.918,0,0,1-.677.731,1.812,1.812,0,0,1-.985.269h-2.11l.05-.089v2.737a.306.306,0,0,1-.3.3.278.278,0,0,1-.219-.09.3.3,0,0,1-.08-.209v-6.37a.294.294,0,0,1,.085-.209.281.281,0,0,1,.214-.09Zm0,3.444a1.182,1.182,0,0,0,.677-.194,1.328,1.328,0,0,0,.453-.527,1.634,1.634,0,0,0,.164-.731,1.555,1.555,0,0,0-.164-.731,1.22,1.22,0,0,0-1.13-.672h-2.11l.05-.079v3l-.06-.06Z" transform="translate(-475.107 -547.724)"/><path class="b" d="M572.667,548.486l-2.418,6a.329.329,0,0,1-.11.149.267.267,0,0,1-.159.05.287.287,0,0,1-.219-.075.359.359,0,0,1-.06-.3l2.627-6.429a.282.282,0,0,1,.115-.154.33.33,0,0,1,.174-.045.3.3,0,0,1,.184.055.354.354,0,0,1,.115.144l2.618,6.4a.378.378,0,0,1,.02.119.262.262,0,0,1-.089.214.317.317,0,0,1-.209.075.286.286,0,0,1-.174-.055.351.351,0,0,1-.115-.144l-2.478-6.051Zm-1.841,4.18.249-.587h3.085l.12.587Z" transform="translate(-517.311 -547.61)"/><path class="b" d="M638.623,547.823a.268.268,0,0,1,.2.08.281.281,0,0,1,.075.2v6.37a.3.3,0,0,1-.095.234.312.312,0,0,1-.214.085.371.371,0,0,1-.135-.025.24.24,0,0,1-.1-.075l-4.439-5.971.169-.1v5.9a.258.258,0,0,1-.08.189.27.27,0,0,1-.2.08.264.264,0,0,1-.279-.269v-6.4a.282.282,0,0,1,.289-.3.393.393,0,0,1,.129.025.214.214,0,0,1,.109.085l4.389,5.912-.1.179V548.1a.272.272,0,0,1,.279-.279Z" transform="translate(-567.899 -547.724)"/><path class="b" d="M699.465,547.632a.269.269,0,0,1,.214.1.309.309,0,0,1,.085.2.342.342,0,0,1-.015.1.284.284,0,0,1-.045.089l-2.339,3.215.119-.388v3.394a.286.286,0,0,1-.089.209.313.313,0,0,1-.438,0,.287.287,0,0,1-.089-.209v-3.324l.06.239-2.279-3.115a.367.367,0,0,1-.06-.1.309.309,0,0,1-.02-.1.264.264,0,0,1,.1-.214.339.339,0,0,1,.214-.084.3.3,0,0,1,.249.139l2.14,2.916-.149-.02,2.08-2.886A.3.3,0,0,1,699.465,547.632Z" transform="translate(-616.271 -547.572)"/></g></g></svg>